<?xml version="1.0" encoding="UTF-8" standalone="no"?>
<svg
   version="1.1"
   width="738"
   height="738"
   id="svg1710"
   sodipodi:docname="spigotmc.svg"
   inkscape:version="1.2.2 (732a01da63, 2022-12-09)"
   xmlns:inkscape="http://www.inkscape.org/namespaces/inkscape"
   xmlns:sodipodi="http://sodipodi.sourceforge.net/DTD/sodipodi-0.dtd"
   xmlns="http://www.w3.org/2000/svg"
   xmlns:svg="http://www.w3.org/2000/svg">
  <defs
     id="defs1714" />
  <sodipodi:namedview
     id="namedview1712"
     pagecolor="#505050"
     bordercolor="#eeeeee"
     borderopacity="1"
     inkscape:showpageshadow="0"
     inkscape:pageopacity="0"
     inkscape:pagecheckerboard="0"
     inkscape:deskcolor="#505050"
     showgrid="false"
     inkscape:zoom="5.6568543"
     inkscape:cx="340.64869"
     inkscape:cy="145.92916"
     inkscape:window-width="2560"
     inkscape:window-height="1361"
     inkscape:window-x="-9"
     inkscape:window-y="-9"
     inkscape:window-maximized="1"
     inkscape:current-layer="svg1710" />
  <path
     d="m 60.138427,450.87235 c 0.893878,-0.003 1.787756,-0.006 2.708721,-0.009 0.990187,0.002 1.980374,0.004 3.000567,0.005 1.049888,-0.002 2.099777,-0.004 3.181481,-0.006 3.559445,-0.006 7.118851,-0.004 10.678299,-0.003 l 7.683267,-0.009 c 6.32706,-0.008 12.654108,-0.01 18.981178,-0.0103 7.57449,-9.2e-4 15.14897,-0.008 22.72346,-0.0144 18.30853,-0.0161 36.61706,-0.022 54.9256,-0.0267 8.65583,-0.002 17.31165,-0.006 25.96748,-0.01 29.61233,-0.0128 59.22466,-0.0236 88.83699,-0.027 l 5.57898,-6.6e-4 5.59267,-6.6e-4 c 3.74013,-4.5e-4 7.48027,-8.9e-4 11.2204,-10e-4 0.92734,-1.1e-4 1.85468,-2.2e-4 2.81012,-3.4e-4 30.0853,-0.004 60.17057,-0.0196 90.25586,-0.0428 31.78591,-0.0246 63.5718,-0.0383 95.35772,-0.0395 3.4862,-1.7e-4 6.97241,-3.8e-4 10.45861,-6.3e-4 0.85844,-6e-5 1.71688,-1.1e-4 2.60134,-1.7e-4 13.8408,-0.001 27.68158,-0.0122 41.52238,-0.0267 13.89935,-0.0143 27.79867,-0.0176 41.69802,-0.01 8.26668,0.004 16.53326,5.4e-4 24.79993,-0.0152 6.159,-0.0108 12.31789,-0.006 18.47689,0.005 2.50199,0.002 5.004,-0.001 7.50598,-0.01 3.38195,-0.0109 6.76337,-0.004 10.1453,0.008 0.98784,-0.008 1.97569,-0.0152 2.99347,-0.023 0.89638,0.007 1.79276,0.014 2.71631,0.0212 1.16099,-3.6e-4 1.16099,-3.6e-4 2.34544,-7.4e-4 2.52605,0.4714 3.29857,1.51899 5.00672,3.37449 l 2.5625,0.5 c 2.4375,0.5 2.4375,0.5 4.4375,3.5 0.80438,0.77344 0.80438,0.77344 1.625,1.5625 1.375,1.4375 1.375,1.4375 1.375,3.4375 l 1,3 3,1 v 7 l 2,1 c -0.0372,17.0381 -0.0972,34.07595 -0.1839,51.11387 -0.0397,7.91175 -0.0722,15.82341 -0.0871,23.73525 -0.0131,6.89933 -0.0401,13.79844 -0.0836,20.69764 -0.0226,3.65009 -0.0383,7.29991 -0.0373,10.95008 8.9e-4,4.08388 -0.0295,8.16697 -0.0622,12.25072 0.005,1.19834 0.0101,2.39669 0.0152,3.63135 -0.1291,10.43371 -4.09856,17.6088 -10.79858,25.64882 -2.25,1.3125 -1.01256,2.28477 -2.76256,2.97227 l -1.7955,0.62998 c -5.79892,1.2294 -10.80951,2.51701 -16.71623,2.51427 -1.05138,0.003 -2.10276,0.007 -3.186,0.0104 -3.53444,0.0104 -7.06886,0.0136 -10.60331,0.017 -2.55502,0.006 -5.11003,0.0124 -7.66505,0.0192 -5.56099,0.0141 -11.12198,0.0246 -16.68298,0.0326 -8.26932,0.0119 -16.53862,0.0295 -24.80792,0.0481 -15.62686,0.0349 -31.25373,0.0631 -46.88061,0.089 -12.06453,0.02 -24.12905,0.0416 -36.19357,0.0643 -3.47161,0.007 -6.94322,0.013 -10.41483,0.0195 -1.29452,0.002 -1.29452,0.002 -2.61521,0.005 -24.27518,0.0454 -48.55037,0.0887 -72.82557,0.12755 -0.91528,10e-4 -1.83055,0.003 -2.77357,0.004 -4.63912,0.007 -9.27824,0.0148 -13.91736,0.0223 -0.92136,10e-4 -1.84273,0.003 -2.79202,0.004 l -5.58967,0.009 c -29.0024,0.0464 -58.00478,0.10089 -87.00715,0.16155 -32.57406,0.0681 -65.14812,0.12948 -97.72221,0.18125 -3.47129,0.006 -6.94259,0.0111 -10.41388,0.0167 -0.85474,0.001 -1.70948,0.003 -2.59012,0.004 -13.77021,0.0222 -27.54039,0.051 -41.31057,0.0819 -13.83044,0.0309 -27.66088,0.0543 -41.49135,0.0701 -8.22163,0.01 -16.4432,0.0248 -24.6648,0.0479 -6.130562,0.0166 -12.261088,0.0228 -18.391668,0.0249 -2.486428,0.002 -4.972855,0.008 -7.459266,0.018 -3.367967,0.0125 -6.735715,0.0127 -10.103698,0.01 -0.975327,0.007 -1.950654,0.0131 -2.955536,0.0199 -4.884351,-0.018 -8.847549,-0.33221 -13.43035,-2.25319 v -2 l -1.625,-0.75 c -7.925562,-4.17135 -7.394312,-4.2026 -9.09375,-8.28125 l -1.28125,-2.96875 c -0.340736,-0.60515 -0.681473,-1.2103 -1.032534,-1.83378 -1.224723,-2.74223 -1.208972,-4.82478 -1.196928,-7.82569 l -3.51e-4,-3.49589 c 0.01026,-1.26189 0.02051,-2.52377 0.03108,-3.82389 0.0039,-1.34557 0.0069,-2.69115 0.0092,-4.03673 0.0091,-3.65323 0.0313,-7.30627 0.05694,-10.95943 0.02057,-3.0538 0.03553,-6.10762 0.05076,-9.16146 0.03637,-7.21024 0.08421,-14.42034 0.138466,-21.63046 0.05561,-7.42414 0.08911,-14.84815 0.112108,-22.27246 0.02072,-6.3833 0.05673,-12.76639 0.104524,-19.14955 0.02827,-3.80814 0.05054,-7.61607 0.05748,-11.42431 0.0071,-3.58634 0.03333,-7.17205 0.07383,-10.75816 0.01716,-1.93165 0.01497,-3.86345 0.01206,-5.79518 0.125377,-8.71315 1.599402,-16.11986 7.583359,-22.77051 0.474375,-0.54527 0.94875,-1.09055 1.4375,-1.65234 2.77385,-2.5034 4.816344,-3.41016 8.5625,-3.41016 l 1,-2 c 2.320293,-1.16015 3.643764,-1.12593 6.226815,-1.12765 z"
     fill="#fc6120"
     id="path908"
     sodipodi:nodetypes="ccccccccccscsscsssscccccccccccccccccccscccccccccccscscccccccsscccccccccccccccccccccccccccccccccc" />
  <path
     d="m 0,0 c 1.4279518,-0.00977526 2.8558881,-0.02208416 4.2837982,-0.03672791 3.8680499,-0.03156363 7.7351638,-0.02515229 11.6032798,-0.0099203 3.233114,0.0091642 6.466057,-5.5996e-4 9.69916,-0.01033873 7.629291,-0.02289302 15.25813,-0.01534892 22.887395,0.01206511 7.862033,0.02780101 15.722926,0.0084482 23.584863,-0.03487569 6.758651,-0.03580803 13.516951,-0.04431629 20.275683,-0.03060758 4.032931,0.008035 8.065221,0.006303 12.098081,-0.0208605 3.79347,-0.0241917 7.58536,-0.0140934 11.37872,0.0219879 1.38869,0.007631 2.77751,0.003449 4.16611,-0.0136738 10.45487,-0.11824575 10.45487,-0.11824575 14.39616,2.4343929 1.77239,1.7388475 3.22494,3.4556644 4.65434,5.4807949 l 2.21484,2.8007817 1.72266,2.511718 1.77734,2.550782 c 1.28516,2.136718 1.28516,2.136718 1.28516,4.136718 l 2.80882,-0.02019 c 8.80965,-0.06054 17.61922,-0.106005 26.42903,-0.135249 4.52733,-0.01554 9.05449,-0.03656 13.58173,-0.07088 4.38318,-0.03301 8.76619,-0.05062 13.14949,-0.05831 1.65784,-0.0055 3.31567,-0.01615 4.97343,-0.03256 11.35714,-0.107794 21.94327,0.972382 33.0575,3.31719 l 3.10081,0.643875 c 15.61495,3.448319 34.3374,14.404744 45.89919,25.356125 l 1.72357,1.447573 1.06878,0.84218 c 19.87387,11.279763 30.28715,43.003871 36.20765,63.71025 1.04748,4.74414 1.02597,9.16738 1,14 -61.75205,1.42441 -61.62705,1.04941 -83.875,-0.375 l -0.70435,-1.68946 -0.78393,-2.71679 -0.76685,-2.68946 c -1.14402,-3.32642 -2.81492,-5.69488 -4.86987,-8.52929 v -2 l -1.76172,-0.84375 c -2.12966,-1.10014 -4.05939,-2.32596 -6.05078,-3.65625 -6.83,-4.2798 -13.81665,-5.64079 -21.70703,-3.96485 -8.55764,2.3479 -14.21654,6.37255 -19.48047,13.46485 l -1.03516,2.59301 c -1.96484,2.40699 -1.96484,2.40699 -5.88208,2.92359 -1.63868,-0.0197 -3.27719,-0.0633 -4.91479,-0.12598 -1.7858,-0.0128 -3.57161,-0.0245 -5.35743,-0.0352 -2.81175,-0.0457 -5.62191,-0.10544 -8.43286,-0.18702 -10.49022,-0.79139 -10.49022,-0.79139 -19.86694,2.73267 -1.54574,2.3289 -2.51161,4.49801 -3.51074,7.09888 -1.00095,1.46614 -2.03852,2.90856 -3.125,4.3125 l -1.49219,1.95703 c -1.66502,2.08363 -3.35561,3.99287 -5.38281,5.73047 h -2 v 2 c -6.93351,6.8057 -15.47748,11.50445 -24,16 l -3.15235,1.69531 C 78.531973,173.70145 50.550706,174.22489 27.031494,166.50317 13.417112,161.80661 1.9305568,155.24497 -8.9724121,145.79224 L -11.43335,143.9563 c -3.195176,-2.72327 -5.616773,-5.78099 -8.164062,-9.10156 l -1.445313,-1.8418 c -6.929687,-8.92197 -6.929687,-8.92197 -6.929687,-12.2207 h -35 c -1.148821,-18.38113 -1.148821,-18.38113 -1.113525,-25.619144 l -4.43e-4,-2.519364 c 6.81e-4,-2.672611 0.0084,-5.345147 0.01631,-8.017746 0.0019,-1.882852 0.0033,-3.765706 0.0043,-5.648559 0.0038,-4.898879 0.01356,-9.797727 0.0247,-14.696594 0.01032,-5.021664 0.01482,-10.043332 0.01984,-15.065003 0.01065,-9.811213 0.0282,-19.622396 0.04883,-29.433594 l 36,1 2,-6 c 1.296875,-2.125 1.296875,-2.125 2.75,-4 l 1.421875,-1.8749997 1.828125,-2.125 2.240982,-3.0832977 C -12.898883,-1.0407028 -6.3456538,-0.05313621 0,0 Z"
     fill="#60727e"
     transform="translate(306.97241,225.20776)"
     id="path910"
     sodipodi:nodetypes="ccccccccccccccccccccccccccccccccccccccccccccccccccccccccccccccccccccccccc" />
  <path
     d="M 0,0 V 2 L 1.6875,2.625 C 4,4 4,4 5.8164062,7.0585937 7.748827,9.4249104 8.7375143,9.9524048 11.789795,10.505859 15.293198,10.628631 18.747034,10.5705 22.25,10.4375 l 3.605469,-0.05664 C 29.242371,10.311624 32.617146,10.176854 36,10 L 38.704834,9.8652344 C 43.338524,9.5100087 46.143217,8.7967024 49.5625,5.625 56.190594,0.05007456 61.648992,-1.4675476 70.300781,-1.2382812 74.046182,-0.90764528 77.403466,-0.08574619 81,1 v 2 l 2.0625,0.5625 c 6.511498,3.1864778 10.60199,8.44775 13.21875,15.125 2.617001,8.419916 2.143896,16.952464 -1.507813,25.023437 -4.359426,7.763044 -9.538304,13.322762 -18.25,15.820313 C 68.913123,60.944931 60.790388,61.070964 54,57 52.679041,55.659162 51.372943,54.303598 50.078125,52.9375 44.440129,47.836263 39.279926,47.872895 31.9375,48 l -3.490234,-0.03516 C 25.629671,47.941461 22.817172,47.953979 20,48 L 21,51 20.558058,82.646447 -46,83 V 48 h -25 l -2,4 c -6.09651,5.951355 -11.964691,8.147873 -20.4375,8.375 -8.86901,-0.256034 -15.24826,-2.11875 -21.77344,-8.292969 -6.02834,-7.015512 -8.29585,-15.558081 -9.10156,-24.582031 0.7199,-8.062826 3.66489,-14.668228 9.3125,-20.5 7.52724,-6.28663638 15.12106,-8.8248071 25,-8 l 2.152344,0.171875 c 6.205443,0.91609349 9.825867,3.864527 14.390625,8.0507812 4.727191,3.4195108 10.392749,2.8976008 16.042969,2.8749998 l 2.126617,-0.0043 c 2.22086,-0.0056 4.441616,-0.0181 6.662445,-0.03087 1.514321,-0.005 3.028644,-0.0096 4.542969,-0.01367 C -40.387987,10.037858 -36.694004,10.020624 -33,10 l 0.871094,-2.3671875 c 1.717688,-4.0059581 4.228565,-5.7841869 8.175781,-7.546875 C -15.487441,-3.037608 -8.598059,-2.2291264 0,0 Z"
     fill="#5c707b"
     transform="translate(378,63)"
     id="path912"
     sodipodi:nodetypes="ccccccccccccccccccccccccccccccccccccccccccc" />
  <path
     d="M 0,0 2.7106934,0.04443359 C 15.696143,0.41588584 28.373575,4.6049674 38.1875,13.4375 l 1.875,1.375 2.125,2.625 1.1875,1.25 0.8125,0.75 c 1.467765,2.515737 2.924222,5.03699 4.375,7.5625 l 1.25,2.134766 c 4.194691,7.340709 5.25,13.61396 5.25,22.302734 l -23.875,-1 -3,-10 c -1.273959,-2.038334 -2.589106,-4.053939 -4,-6 v -2 L 22.425781,31.59375 C 20.296125,30.493614 18.366392,29.267799 16.375,27.9375 9.5450039,23.657706 2.5583538,22.296714 -5.3320312,23.972656 -13.889672,26.320555 -19.54857,30.345203 -24.8125,37.4375 l -1.035156,2.593018 c -1.964844,2.406982 -1.964844,2.406982 -5.88208,2.923584 -1.638685,-0.01973 -3.277191,-0.06332 -4.914795,-0.125977 -1.7858,-0.01278 -3.571608,-0.02447 -5.357422,-0.03516 -2.811756,-0.04565 -5.621912,-0.105436 -8.432861,-0.187012 -10.49022,-0.791397 -10.49022,-0.791397 -19.866944,2.732666 -1.54574,2.3289 -2.511608,4.498011 -3.510742,7.098877 -1.000945,1.466146 -2.038521,2.908563 -3.125,4.3125 l -1.492187,1.957031 c -1.665022,2.083628 -3.355614,3.99287 -5.382813,5.730469 h -2 v 2 c -6.933513,6.805706 -15.47748,11.504449 -24,16 l -3.15234,1.695312 c -22.34327,11.2139 -50.32454,11.737345 -73.84375,4.015625 -13.61439,-4.696559 -25.10094,-11.258203 -36.00391,-20.710937 l -2.46094,-1.835938 c -3.19517,-2.723273 -5.61677,-5.780988 -8.16406,-9.101562 l -1.44531,-1.841797 C -241.8125,45.73623 -241.8125,45.73623 -241.8125,42.4375 h -35 c -1.16433,-18.629247 -1.16433,-18.629247 -1.125,-26.875 l -0.0117,-2.621094 0.004,-2.496093 0.003,-2.198731 c 0.1297,-1.809082 0.1297,-1.809082 1.1297,-3.809082 h 51 l 3,16 c 1.24462,3.225653 2.3209,5.82626 4,8.75 l 1.17163,2.120361 c 7.27371,12.609589 17.65636,22.014063 30.82837,28.129639 v 2 l 2.6875,0.375 c 3.3125,0.625 3.3125,0.625 5.57422,1.59375 16.38736,6.171558 37.13624,3.56183 53.08594,-2.746094 9.25653,-4.267004 18.88237,-9.567704 24.65234,-18.222656 h 2 l 0.855469,-1.78125 C -96.91422,38.634691 -95.768507,36.821667 -94.5,34.9375 -89.173222,26.411503 -86.354014,17.922464 -85.171875,7.9570312 -84.8125,5.4375 -84.8125,5.4375 -83.8125,4.4375 c 1.69587,-0.072725 3.394799,-0.075249 5.092041,-0.050049 l 3.301407,0.039352 3.610458,0.053665 c 2.521476,0.022424 5.042961,0.043876 7.564453,0.064453 3.975843,0.036816 7.95095,0.079426 11.926514,0.1394043 19.395489,0.354705 19.395489,0.354705 38.299316,-3.3320313 C -9.3135129,0.00975613 -4.8621935,-0.13211707 0,0 Z"
     fill="#344653"
     transform="translate(520.8125,303.5625)"
     id="path914"
     sodipodi:nodetypes="cccccccccccccccccccccccccccccccccccccccccccccccccccccccccccccccccc" />
  <path
     d="M0 0 C9.63442092 7.35857346 16.09284219 19.02437695 18.5 30.875 C18.70729702 32.57888042 18.87656426 34.28799995 19 36 C19.11988281 37.17175781 19.11988281 37.17175781 19.2421875 38.3671875 C19.9929975 51.83760219 14.61236532 64.10915241 6.12109375 74.2421875 C-2.70137999 83.68847251 -14.45352727 89.44855045 -27.390625 90.125 C-43.99091546 90.50443521 -55.88888426 86.39659564 -68 75 C-77.0875022 65.30463812 -82.42090564 54.35446695 -82.3125 40.875 C-82.30686035 40.13507812 -82.3012207 39.39515625 -82.29541016 38.6328125 C-82.0559981 27.63408053 -79.90549318 18.69843614 -73 10 C-71.9171875 8.4840625 -71.9171875 8.4840625 -70.8125 6.9375 C-52.34445225 -14.30370508 -22.07337894 -15.20345045 0 0 Z "
     fill="#FCFBE9"
     transform="translate(540,500)"
     id="path916" />
  <path
     d="M0 0 C1.12998917 -0.0071553 2.25997833 -0.01431061 3.42420959 -0.02168274 C4.66994247 -0.02437164 5.91567535 -0.02706055 7.19915771 -0.02983093 C8.50654404 -0.03640213 9.81393036 -0.04297333 11.16093445 -0.04974365 C14.75407335 -0.06715952 18.34719895 -0.0777073 21.94036961 -0.08594918 C24.18539473 -0.09109882 26.43041572 -0.09717461 28.67543793 -0.10346031 C35.6999017 -0.12251529 42.72435496 -0.13674495 49.74883962 -0.14507228 C57.85663545 -0.15484247 65.96415811 -0.18115474 74.07185769 -0.22157317 C80.33860895 -0.25174148 86.60528194 -0.26654188 92.87210441 -0.26985329 C96.61487424 -0.27220326 100.35735234 -0.28115606 104.10004425 -0.30631447 C108.27778791 -0.33394291 112.45492224 -0.3297619 116.63275146 -0.32279968 C117.87038742 -0.33560974 119.10802338 -0.3484198 120.38316345 -0.36161804 C126.77109614 -0.32275196 130.86559151 -0.24314778 135.67474365 4.14717102 C141.13530377 10.06277782 142.03698964 15.25497802 142.04974365 23.02217102 C142.07423584 23.79947571 142.09872803 24.5767804 142.1239624 25.37763977 C142.15282553 31.10216075 141.1322592 34.53321682 137.67474365 39.14717102 C133.91902609 41.09903693 130.79200142 41.3941504 126.59562683 41.38336182 C124.7639093 41.38570328 124.7639093 41.38570328 122.89518738 41.38809204 C121.55013892 41.37954551 120.20509193 41.37076385 118.86004639 41.36177063 C117.43724672 41.35952835 116.01444556 41.35810475 114.59164429 41.35743713 C110.73427762 41.3526373 106.87708573 41.33454777 103.01978183 41.31268764 C100.60976589 41.29952257 98.19975318 41.28902634 95.78972054 41.27943611 C87.38192479 41.24566904 78.97427223 41.20042139 70.56658936 41.14546204 C62.72819826 41.09455579 54.89001536 41.06994641 47.05147785 41.0572719 C40.32002431 41.04514069 33.58883166 41.01392464 26.85752445 40.96798712 C22.83768554 40.94092312 18.81818445 40.92178751 14.79824638 40.92214775 C11.01975958 40.92188711 7.24216032 40.89793718 3.46391678 40.85569763 C2.0772254 40.84425244 0.6904339 40.84131502 -0.69629097 40.84749031 C-2.58862159 40.85460192 -4.48098978 40.82809695 -6.37312317 40.79986572 C-7.43222177 40.79450271 -8.49132036 40.78913969 -9.58251286 40.78361416 C-13.29542319 39.92204752 -14.31104224 38.30071138 -16.32525635 35.14717102 C-18.64064604 28.20100194 -18.50824252 17.51297726 -16.26275635 10.45967102 C-12.41893594 3.88797807 -7.64582328 0.03314158 0 0 Z "
     fill="#5D727E"
     transform="translate(303.32525634765625,163.8528289794922)"
     id="path918" />
  <path
     d="M0 0 C8.70375 -0.061875 17.4075 -0.12375 26.375 -0.1875 C29.10313965 -0.21481201 31.8312793 -0.24212402 34.64208984 -0.27026367 C36.83170124 -0.27903476 39.02131757 -0.28667722 41.2109375 -0.29296875 C42.32573486 -0.30831665 43.44053223 -0.32366455 44.58911133 -0.33947754 C57.30085241 -0.3436858 66.3999621 3.06863496 75.8203125 11.66015625 C82.93084082 19.2173258 84.59548524 27.6795884 84.47265625 37.73950195 C84.22546777 43.77614007 83.07865898 48.7374173 80 54 C79.5875 54.71542969 79.175 55.43085937 78.75 56.16796875 C73.36952132 64.31511403 65.32363089 68.01159138 56.12329102 70.41333008 C50.53136588 71.46370107 44.98048979 71.31063031 39.3125 71.1875 C35.249375 71.125625 31.18625 71.06375 27 71 C27 79.25 27 87.5 27 96 C18.09 96 9.18 96 0 96 C0 64.32 0 32.64 0 0 Z "
     fill="#FCFBEA"
     transform="translate(182,492)"
     id="path920" />
  <path
     d="M0 0 C0.88623047 -0.01611328 1.77246094 -0.03222656 2.68554688 -0.04882812 C12.14528011 -0.055728 20.05991088 2.46433343 28.125 7.3125 C28.72248047 7.65539062 29.31996094 7.99828125 29.93554688 8.3515625 C35.61191476 11.67493319 35.61191476 11.67493319 37.6875 14.3125 C37.52616104 16.89392336 36.88890026 18.06731707 35.25 20.0625 C33.6875 21.3125 33.6875 21.3125 31.6875 21.3125 C31.6875 21.9725 31.6875 22.6325 31.6875 23.3125 C29.97265625 24.96875 29.97265625 24.96875 27.75 26.8125 C24.76704821 29.20176999 24.76704821 29.20176999 22.6875 32.3125 C19.37424832 31.91089374 16.95815603 30.99773936 14.125 29.3125 C7.90600431 25.69417524 1.77975478 25.67437939 -5.3125 26.3125 C-11.50727469 28.02069368 -15.90754426 31.94518659 -19.3125 37.3125 C-22.61995407 44.02725581 -23.75848671 51.49254429 -21.5859375 58.734375 C-18.80844217 65.46359134 -15.42848994 70.63178542 -8.625 73.6875 C-0.94059181 76.43193149 6.07349521 75.96084949 13.6875 73.3125 C14.0175 70.0125 14.3475 66.7125 14.6875 63.3125 C9.0775 63.3125 3.4675 63.3125 -2.3125 63.3125 C-4.63389805 56.34830586 -3.3125 48.65340518 -3.3125 41.3125 C11.2075 41.3125 25.7275 41.3125 40.6875 41.3125 C40.914375 48.428125 41.14125 55.54375 41.375 62.875 C41.47514404 65.10838135 41.57528809 67.3417627 41.6784668 69.64282227 C42.04580386 83.62814581 42.04580386 83.62814581 38.37670898 88.17797852 C35.51337941 90.01543633 32.8900844 91.18962787 29.6875 92.3125 C27.90604754 93.22966088 26.13329646 94.16419279 24.375 95.125 C11.73391072 101.18715759 -2.76651081 102.23367621 -16.30859375 98.40234375 C-29.33781059 93.67522867 -40.14040801 84.60492385 -46.375 72.1875 C-48.75318351 66.96459938 -50.72930352 62.03842911 -51.3125 56.3125 C-51.39371094 55.59578125 -51.47492188 54.8790625 -51.55859375 54.140625 C-52.20916409 42.39093035 -48.95477636 29.31421975 -41.3125 20.3125 C-40.77625 19.61898438 -40.24 18.92546875 -39.6875 18.2109375 C-29.7309282 5.90350848 -15.52910719 -0.0557398 0 0 Z "
     fill="#FCFBE8"
     transform="translate(395.3125,489.6875)"
     id="path922" />
  <path
     d="M0 0 C3.90534432 2.88946185 6.56743956 6.09326809 7.65356445 10.88092041 C7.92689311 14.39845094 7.9686209 17.85464358 7.9375 21.3828125 C7.95005699 22.75181895 7.96551094 24.12080132 7.98358154 25.48974609 C8.02357122 29.24547532 8.01873599 32.99996776 8.00492859 36.75583649 C7.99830488 39.93984112 8.01634764 43.12351634 8.03428268 46.30746269 C8.0941683 57.17153296 8.05802306 68.03463305 8.01187134 78.89868164 C7.99524972 83.24098246 7.98544269 87.58329181 7.97515106 91.9256115 C7.94121435 105.84264444 7.86968387 119.75919522 7.77282715 133.67592621 C7.75000899 137.12364164 7.7311322 140.57136161 7.71289062 144.019104 C7.6823303 149.49000311 7.63563941 154.96054806 7.57675934 160.43121338 C7.55705365 162.45991845 7.54224767 164.48867786 7.5326767 166.51745605 C7.51837366 169.31292056 7.48563376 172.10759397 7.44824219 174.90283203 C7.44811127 175.71174456 7.44798035 176.52065708 7.44784546 177.35408211 C7.33025258 183.76102643 6.21229553 189.46236689 1.875 194.4375 C-3.39635574 197.30236725 -8.01011181 197.56380165 -13.75 195.9375 C-17.39005937 193.7674646 -20.01982949 191.74996126 -22 188 C-22.75708097 184.11608327 -22.72090131 180.28370918 -22.70703125 176.3359375 C-22.72233383 175.12767303 -22.73763641 173.91940857 -22.75340271 172.67453003 C-22.79023883 169.2904478 -22.80426639 165.90770291 -22.80769348 162.52351379 C-22.81415825 159.6337615 -22.83777703 156.74425348 -22.86148643 153.854599 C-22.92952717 145.53236684 -22.95747782 137.21030399 -22.97510338 128.88783264 C-22.99260046 121.37010225 -23.0305734 113.85258416 -23.07373047 106.33496094 C-23.14323845 94.09405093 -23.19211658 81.85317734 -23.22714233 69.61212158 C-23.24125018 64.70449334 -23.26088196 59.79693307 -23.28482056 54.88934326 C-23.31231052 49.03254106 -23.32412056 43.17589919 -23.3243885 37.31903458 C-23.32685541 35.13806072 -23.33446657 32.95708587 -23.34753227 30.77614975 C-23.36460549 27.76497623 -23.36283163 24.75436663 -23.35644531 21.74316406 C-23.36566419 20.86873846 -23.37488306 19.99431286 -23.38438129 19.09338951 C-23.33961298 12.49598692 -22.47742492 6.54438235 -17.6875 1.625 C-11.45320017 -2.14457664 -6.7267641 -2.82669242 0 0 Z "
     fill="#4E606E"
     transform="translate(107,202)"
     id="path924" />
  <path
     d="m 0,0 c 17.995486,-0.16043524 17.995486,-0.16043524 25.78125,-0.1953125 5.272629,-0.023733 10.544975,-0.0515283 15.817383,-0.10644531 4.260006,-0.0440844 8.519709,-0.0675082 12.779926,-0.0777512 1.609584,-0.007281 3.219155,-0.0214911 4.828606,-0.0434113 C 73.667715,-0.61168392 88.622312,0.90596046 101.6875,7.625 l 2.07397,1.019043 C 111.26354,12.444722 118.17075,17.115926 125,22 l 2.71094,1.898437 C 129.52209,25.201195 131.27172,26.589156 133,28 l 1.4043,1.351983 0.93945,1.085517 C 137.84752,31.868225 138.48072,33.569158 140,36 v 2 h -18 v 2 l 3,1 c 6.4268,6.077151 16.65963,16.809404 17.25,25.8125 -0.0557,3.836241 -0.75583,6.158868 -3.25,9.1875 -2.68566,2.188313 -4.3422,2.005519 -7.875,2.0625 -4.32473,-0.688753 -6.11128,-2.62214 -8.69141,-6.027344 L 121,70 c -1.01791,-1.377168 -2.03874,-2.752176 -3.0625,-4.125 l -1.51172,-2.035156 C 114.47329,61.320325 112.33546,59.168637 110,57 l -1.5625,-1.613281 C 104.22387,51.291143 99.774426,48.659683 94.5,46.1875 L 92.631348,45.309082 C 85.491311,42.111235 78.653063,40.704926 70.839844,40.681152 l -2.338486,-0.03044 c -2.521279,-0.0306 -5.042453,-0.0478 -7.563858,-0.06477 -1.759775,-0.01873 -3.519541,-0.0383 -5.279297,-0.05869 -4.609586,-0.05113 -9.219202,-0.09086 -13.828918,-0.128143 C 36.286571,40.351878 30.743999,40.290362 25.201401,40.231262 16.800992,40.143279 8.4006069,40.073351 0,40 Z"
     fill="#f0efe0"
     transform="translate(463,246)"
     id="path926"
     sodipodi:nodetypes="cccccccccccccccccccccccccccccccccccc" />
  <path
     d="m 0,0 3.5753326,-0.01150513 c 3.8839359,-0.0073844 7.7671164,0.01394769 11.6509854,0.03640747 2.707069,0.0044043 5.41413,0.003391 8.121201,0.0027771 5.666481,0.0018686 11.332748,0.01917296 16.999161,0.04653931 6.538191,0.03146128 13.076147,0.04199538 19.614408,0.04052889 6.981304,-0.001354 13.962517,0.0125434 20.943793,0.0308932 2.0031,0.004249 4.006186,0.005681 6.00929,0.006478 3.740968,0.004343 7.481643,0.0218643 11.222548,0.0431938 l 3.342591,-0.002747 c 12.88003,0.10722966 12.88003,0.10722966 17.48529,3.91436768 l 1.41406,1.8164062 1.46094,1.8085938 c 2.96209,4.4630084 2.38466,9.4243864 2.41406,14.5664064 l 0.0625,2.697265 c 0.0307,5.177314 -0.92145,7.964844 -4.15219,12.252798 -6.29379,3.616035 -11.38935,4.657012 -18.51797,4.609751 l -3.727543,0.01106 c -3.357524,0.0067 -6.714489,2.3e-5 -10.071958,-0.01333 -3.521907,-0.01136 -7.043801,-0.0072 -10.565722,-0.0053 -5.912,8.81e-4 -11.823885,-0.01017 -17.735855,-0.02861 -6.826178,-0.02117 -13.652187,-0.02467 -20.47839,-0.01844 -6.57971,0.0057 -13.15936,3.9e-5 -19.739061,-0.01117 -2.794512,-0.0046 -5.588988,-0.0055 -8.383503,-0.0034 -3.9040749,0.0022 -7.8079908,-0.01225 -11.71203441,-0.0285 l -3.49992369,0.0075 c -10.0834809,-0.06697 -10.0834809,-0.06697 -14.7283479,-2.282165 -5.159831,-5.438742 -5.231246,-10.08592 -5.3125,-17.1875 l -0.08789,-2.501953 C -24.457376,13.876236 -23.651637,9.2564747 -19.996338,4.4858398 -13.954676,-0.18083143 -7.3250464,-0.07477203 0,0 Z"
     fill="#eef0e2"
     transform="translate(545.99634,371.51416)"
     id="path928"
     sodipodi:nodetypes="ccccscccccccccccccccscscccccccc" />
  <path
     d="M0 0 C4.50642237 6.97808186 4.54200269 12.93124821 4.42578125 21.09375 C4.42131838 22.43482515 4.4186039 23.77590704 4.41746521 25.11698914 C4.40892086 28.80249785 4.37475485 32.48737233 4.33537292 36.17266464 C4.29668753 40.10892965 4.27822592 44.04529949 4.25683594 47.98168945 C4.22114309 54.07158023 4.1748327 60.16128669 4.11963081 66.25103092 C4.02397528 76.85123883 3.97042693 87.45109191 3.93794918 98.0516758 C3.90842895 107.55892587 3.86368618 117.06602328 3.80806828 126.57315636 C3.7737887 132.46804893 3.74517751 138.36283605 3.7303772 144.2578125 C3.71546328 149.86443351 3.68098053 155.47061239 3.63200569 161.0770359 C3.61705225 163.16069585 3.60893485 165.24441732 3.60803032 167.32813072 C3.60568415 170.19603899 3.57881559 173.0627227 3.54589844 175.93041992 C3.55093038 176.76679237 3.55596231 177.60316483 3.56114674 178.4648819 C3.46637 183.76191812 2.4934784 186.78353963 -1 191 C-4.77932274 193.59629945 -8.80586002 194.25627079 -13.3125 193.75 C-20.04720612 192.38022926 -20.04720612 192.38022926 -22.625 188.6875 C-23.05039063 188.09324219 -23.47578125 187.49898437 -23.9140625 186.88671875 C-26.29707133 182.74645521 -26.12944345 178.65543252 -26.14044189 173.9536438 C-26.14341302 173.24392138 -26.14638414 172.53419897 -26.1494453 171.80296981 C-26.15811698 169.42478693 -26.15963923 167.04665447 -26.16113281 164.66845703 C-26.16576201 162.96333712 -26.1707868 161.25821825 -26.17617798 159.55310059 C-26.18929273 154.9208513 -26.19574493 150.28861651 -26.20018864 145.65635157 C-26.20312037 142.76238339 -26.20722533 139.86841916 -26.21169281 136.97445297 C-26.22536423 127.9199682 -26.23503308 118.86549246 -26.2388947 109.81099808 C-26.24337714 99.35840756 -26.26093512 88.9059477 -26.2898953 78.45339692 C-26.3115051 70.37345649 -26.32159858 62.29355285 -26.32293582 54.21358383 C-26.32398419 49.38774141 -26.32989905 44.56202187 -26.34775543 39.73620987 C-26.36422436 35.19718242 -26.36639737 30.6583704 -26.35761642 26.11932373 C-26.35684546 24.45445046 -26.36119655 22.78956567 -26.37107468 21.12472153 C-26.38378074 18.8496656 -26.37792525 16.57537426 -26.36749268 14.30032349 C-26.36895924 13.02791368 -26.3704258 11.75550388 -26.3719368 10.44453621 C-25.83649389 5.48575697 -24.05205494 1.36098494 -20.125 -1.8125 C-13.13854723 -6.70301694 -6.40114881 -5.42706095 0 0 Z "
     fill="#506370"
     transform="translate(163,205)"
     id="path930" />
  <path
     d="M0 0 C0.804375 0.721875 1.60875 1.44375 2.4375 2.1875 C-0.38315301 6.57664698 -3.43694683 10.5883749 -6.8125 14.5625 C-7.27140625 15.10777344 -7.7303125 15.65304687 -8.203125 16.21484375 C-9.32019246 17.54136136 -10.44095702 18.86476419 -11.5625 20.1875 C-12.75746094 19.57261719 -12.75746094 19.57261719 -13.9765625 18.9453125 C-15.03617188 18.40648437 -16.09578125 17.86765625 -17.1875 17.3125 C-18.23164063 16.77882813 -19.27578125 16.24515625 -20.3515625 15.6953125 C-25.34260548 13.35158672 -29.58511708 11.90597862 -35.125 11.9375 C-36.48818359 11.92976562 -36.48818359 11.92976562 -37.87890625 11.921875 C-40.7576578 12.20681693 -42.94110182 12.9929388 -45.5625 14.1875 C-46.60464691 18.80257774 -46.60464691 18.80257774 -45.5625 23.1875 C-40.81420396 25.27996944 -35.84723904 25.78569888 -30.75341797 26.47949219 C-17.22163262 28.34855634 -5.88103552 30.09140376 3.1328125 41.2578125 C7.63930689 47.9231066 7.22291995 55.3835192 6.4375 63.1875 C4.37721288 71.93446747 -2.31968879 79.26736034 -9.68359375 84.16015625 C-15.53269384 87.35831285 -21.93747062 88.83165324 -28.5625 89.1875 C-30.32787109 89.28417969 -30.32787109 89.28417969 -32.12890625 89.3828125 C-46.71573082 89.91994855 -58.29794234 86.19662781 -70.5625 78.1875 C-71.24828125 77.74535156 -71.9340625 77.30320312 -72.640625 76.84765625 C-73.96110785 75.98070372 -75.26502618 75.08852349 -76.5625 74.1875 C-75.97953883 71.02322104 -75.09682863 69.33492654 -72.875 67.0234375 C-72.34132813 66.45882812 -71.80765625 65.89421875 -71.2578125 65.3125 C-70.69835937 64.735 -70.13890625 64.1575 -69.5625 63.5625 C-65.62123963 59.70028516 -65.62123963 59.70028516 -62.5625 55.1875 C-59.48251735 56.66022734 -56.63722098 58.36877812 -53.75 60.1875 C-45.33901974 65.19258259 -37.29430407 66.22660193 -27.5625 65.1875 C-24.21942078 63.78083499 -24.21942078 63.78083499 -21.5625 62.1875 C-21.5625 59.5475 -21.5625 56.9075 -21.5625 54.1875 C-27.85029671 51.83561946 -33.8522476 50.56404959 -40.5 49.75 C-51.06409111 48.2905129 -60.80439825 46.04904311 -68.5625 38.1875 C-73.83098169 30.53378531 -75.79497436 23.46239181 -74.5625 14.1875 C-71.79223205 5.82307805 -67.99205399 -0.81081802 -60.25 -5.484375 C-40.60727672 -15.19153476 -17.31110891 -14.15273107 0 0 Z "
     fill="#FCFAE7"
     transform="translate(146.5625,500.8125)"
     id="path932" />
  <path
     d="M 0.04419417,-0.30935922 1.9003495,0.67417479 3.0133252,1.873699 C 5.3258252,3.248699 4,4 5.8164062,7.0585937 7.748827,9.4249104 8.7375143,9.9524048 11.789795,10.505859 15.293198,10.628631 18.747034,10.5705 22.25,10.4375 l 3.605469,-0.05664 C 29.242371,10.311624 32.617146,10.176854 36,10 L 38.704834,9.8652344 C 43.338524,9.5100087 46.143217,8.7967024 49.5625,5.625 56.190594,0.05007456 61.648992,-1.4675476 70.300781,-1.2382812 74.046182,-0.90764528 77.403466,-0.08574619 81,1 l 1.3125,0.71875 1.96875,1 c 6.792995,3.2178487 9.341026,9.278202 12.003906,15.929687 C 97.413119,22.359005 98.043362,26.114754 98,30 96.060256,31.939744 92.835472,31.392719 90.25,31.5 83.619014,31.48655 83.619014,31.48655 81.101562,29.507812 79.875,27.625 79.875,27.625 78.992187,25.726562 77.671534,23.428417 76.463886,22.910567 74,22 69.344297,21.272017 65.856283,21.571858 61.625,23.6875 58.897542,25.801197 58.897542,25.801197 57.684241,28.606801 56,31 56,31 53.486833,31.616382 l -3.059694,-0.0127 -3.513626,0.02161 -3.858581,-0.05424 c -1.353541,-0.0015 -2.707085,-7.78e-4 -4.060624,0.0019 -3.678041,3.29e-4 -7.355167,-0.03133 -11.032978,-0.07028 -3.069124,-0.02956 -6.138234,-0.04341 -9.207462,-0.0572 -7.24042,-0.0327 -14.480322,-0.09103 -21.7204207,-0.165891 -7.4714483,-0.07687 -14.9423243,-0.113822 -22.4141303,-0.130545 -6.413034,-0.01558 -12.825633,-0.05435 -19.238426,-0.11208 -3.830966,-0.03435 -7.661501,-0.06024 -11.492629,-0.06451 -3.603062,-0.0052 -7.204702,-0.03933 -10.807312,-0.09589 -1.95284,-0.02357 -3.905965,-0.0177 -5.858935,-0.01099 -8.385353,-0.172336 -8.385353,-0.172336 -10.844652,-2.209905 C -84.695816,27.031448 -84.695816,27.031448 -86,24 c -4.220733,-2.94687 -9.058169,-2.48937 -14,-2 -3.0195,0.79428 -3.0195,0.79428 -5,3 -1.28027,2.638596 -2.12237,5.182346 -3,8 -1.72881,0.0545 -3.45813,0.09302 -5.1875,0.125 l -2.91797,0.07031 C -119.12813,32.991354 -121.2677,32.268746 -124,31 c -0.54173,-8.487166 1.85207,-15.508692 7.20312,-22.1445312 6.51773,-6.7302594 13.48302,-9.51808093 22.73438,-10.1054688 1.355698,0.052854 2.710476,0.1371175 4.0625,0.25 l 2.152344,0.171875 c 6.205443,0.91609349 9.825867,3.864527 14.390625,8.0507812 4.727191,3.4195108 10.392749,2.8976008 16.042969,2.8749998 l 2.126617,-0.0043 c 2.22086,-0.0056 4.441616,-0.0181 6.662445,-0.03087 1.514321,-0.005 3.028644,-0.0096 4.542969,-0.01367 C -40.387987,10.037858 -36.694004,10.020624 -33,10 l 0.871094,-2.3671875 c 1.717688,-4.0059581 4.228565,-5.7841869 8.175781,-7.546875 8.465684,-3.1235455 15.3992601,-2.6244231 23.99731917,-0.39529672 z"
     fill="#f9f7e8"
     transform="translate(378,63)"
     id="path934"
     sodipodi:nodetypes="cccccccccccccccccccccccccccccccccccccccccccccccccccccccc" />
  <path
     d="M0 0 C2.43831347 2.08148711 3.29045181 3.34985404 4.5625 6.1875 C5.5525 6.5175 6.5425 6.8475 7.5625 7.1875 C6.9025 7.1875 6.2425 7.1875 5.5625 7.1875 C5.59410217 8.25396759 5.62570435 9.32043518 5.65826416 10.41921997 C6.480744 38.82880797 6.67193166 67.20077277 6.37548828 95.62011719 C6.31911372 101.09095035 6.28335999 106.56173332 6.25185776 112.03275871 C6.22408333 116.31191495 6.18307308 120.59086831 6.13825226 124.86987686 C6.11917576 126.89120713 6.10481968 128.91258809 6.09545135 130.93398666 C6.08114174 133.72310059 6.04829013 136.5114084 6.01074219 139.30029297 C6.01060623 140.11661697 6.01047028 140.93294098 6.0103302 141.77400208 C5.92105657 146.63139399 5.20459822 149.95848371 2.5625 154.1875 C-0.91243615 157.01277417 -4.66393676 158.09413892 -9.0625 158.625 C-14.16602235 157.96343229 -17.25004463 156.47123554 -20.75 152.6875 C-23.31746028 148.88385514 -23.56589929 146.04178052 -23.58467102 141.55889893 C-23.59182632 140.38690948 -23.59898163 139.21492004 -23.60635376 138.00741577 C-23.60904266 136.72009552 -23.61173157 135.43277527 -23.61450195 134.10644531 C-23.62076796 132.73806588 -23.62741488 131.36968814 -23.63441467 130.00131226 C-23.65544203 125.50609519 -23.66581613 121.01087784 -23.67578125 116.515625 C-23.67982937 114.96706881 -23.6839463 113.4185128 -23.68813133 111.86995697 C-23.70718046 104.59401059 -23.72141181 97.31807434 -23.7297433 90.04210782 C-23.7395137 81.64851367 -23.76582903 73.25518337 -23.80624419 64.86168218 C-23.83642404 58.37069326 -23.85121396 51.87977989 -23.85452431 45.38872218 C-23.85687278 41.51347694 -23.86580626 37.63851367 -23.89098549 33.76334381 C-23.91430408 30.11561725 -23.91848457 26.46835755 -23.90822411 22.82057571 C-23.90749444 20.85024259 -23.92655926 18.87993297 -23.94628906 16.90969849 C-23.90661444 10.14890123 -23.66736773 5.59721417 -19.4375 0.1875 C-12.84409887 -3.949536 -6.69849511 -3.53193378 0 0 Z "
     fill="#4D5F6C"
     transform="translate(213.4375,224.8125)"
     id="path936" />
  <path
     d="M0 0 C27.72 0 55.44 0 84 0 C84 7.92 84 15.84 84 24 C74.76 24 65.52 24 56 24 C56 47.76 56 71.52 56 96 C47.09 96 38.18 96 29 96 C28.24651528 91.47909166 27.87783209 87.77164994 27.88647461 83.26025391 C27.88632858 82.61564209 27.88618256 81.97103027 27.8860321 81.30688477 C27.88672339 79.19674195 27.89447867 77.08668971 27.90234375 74.9765625 C27.90421072 73.5054021 27.90563331 72.03424108 27.90663147 70.56307983 C27.91043467 66.70634215 27.92024602 62.84964262 27.93133545 58.99291992 C27.94159698 55.05127478 27.94613922 51.10962342 27.95117188 47.16796875 C27.96187042 39.44529316 27.97944925 31.7226568 28 24 C18.76 24 9.52 24 0 24 C0 16.08 0 8.16 0 0 Z "
     fill="#FCFBE6"
     transform="translate(575,492)"
     id="path938" />
  <path
     d="m 0,0 3.4242096,-0.02168274 3.7749481,-0.0081482 3.9617763,-0.01991272 c 3.593139,-0.01741587 7.186265,-0.02796365 10.779436,-0.03620553 2.245025,-0.0051496 4.490046,-0.01122543 6.735068,-0.01751113 7.024464,-0.019055 14.048917,-0.0332846 21.073402,-0.041612 8.107795,-0.00977 16.215318,-0.0360825 24.323018,-0.0765009 6.266751,-0.0301683 12.533424,-0.0449687 18.800246,-0.0482801 3.74277,-0.00235 7.485246,-0.0113028 11.227936,-0.0364612 4.17775,-0.0276284 8.35488,-0.0234474 12.53271,-0.0164852 l 3.75041,-0.0388184 c 6.38462,0.0388459 10.49141,0.10986666 15.29158,4.50878904 5.31086,6.028539 6.25,7.038819 6.25,16.0625 l -159.973569,0.202665 c 0,-10.351351 1.723573,-10.6165163 5.723573,-15.265165 C -8.0061663,1.3422583 -5.7071739,0.02473831 0,0 Z"
     fill="#eff0e2"
     transform="translate(303.32526,163.85283)"
     id="path940"
     sodipodi:nodetypes="ccccscccccccccccc" />
  <path
     d="m -1.6464466,25.027728 c -6.0740087,3.61479 -12.5818624,4.391852 -19.7112194,4.344586 l -3.727539,0.01106 c -3.357524,0.0067 -6.714489,2.3e-5 -10.071958,-0.01333 -3.521907,-0.01136 -7.043802,-0.0072 -10.565722,-0.0053 -5.912,8.81e-4 -11.823886,-0.01017 -17.735855,-0.02861 -6.826178,-0.02117 -13.652187,-0.02468 -20.478391,-0.01844 -6.579709,0.0057 -13.159359,3.8e-5 -19.739059,-0.01117 -2.79451,-0.0046 -5.58899,-0.0055 -8.3835,-0.0034 -3.90408,0.0022 -7.80799,-0.01225 -11.71204,-0.0285 l -3.49992,0.0075 C -137.35513,29.215195 -137.35513,29.215195 -142,27 c -5.73197,-6.041801 -5.34375,-9.106788 -5.34375,-18.0625 L 1.1508883,9.8428301 C 1.4851437,11.580861 2.7458335,15.505716 -1.6464466,25.027728 Z"
     fill="#5f737f"
     transform="translate(669,384)"
     id="path942"
     sodipodi:nodetypes="cccccscsccccccc" />
  <path
     d="M0 0 C8.91 0 17.82 0 27 0 C27 31.68 27 63.36 27 96 C18.09 96 9.18 96 0 96 C0 64.32 0 32.64 0 0 Z "
     fill="#FDFCEB"
     transform="translate(293,492)"
     id="path944" />
  <path
     d="M0 0 C5.30203598 7.63954436 4.51130564 15.83827805 4.390625 24.75 C4.3831544 26.37523703 4.37746534 28.00048313 4.37347412 29.62573242 C4.35828205 33.88052726 4.31905692 38.13476634 4.2746582 42.38934326 C4.23356576 46.73995447 4.21543343 51.09065645 4.1953125 55.44140625 C4.1525552 63.96121959 4.08225921 72.48047639 4 81 C-5.9 81 -15.8 81 -26 81 C-26.06784391 71.45523111 -26.12285536 61.91062303 -26.15543652 52.36566734 C-26.17107579 47.9333028 -26.1922822 43.50111214 -26.22631836 39.06884766 C-26.25897398 34.78945843 -26.27686609 30.5102362 -26.28463173 26.23073196 C-26.29016412 24.60008746 -26.3009676 22.96945183 -26.31719017 21.33887863 C-26.33904734 19.05042701 -26.34196353 16.76266072 -26.34057617 14.47412109 C-26.34723801 13.17284271 -26.35389984 11.87156433 -26.36076355 10.53085327 C-25.90503047 6.07051735 -24.51873831 2.74696401 -21.5703125 -0.64453125 C-14.27856694 -6.53704996 -7.17154309 -6.08022131 0 0 Z "
     fill="#E5E5D9"
     transform="translate(163,205)"
     id="path946" />
  <path
     d="M0 0 C5.0802999 4.95083386 5.83645146 9.73872629 5.99839783 16.55378151 C6.01565666 18.89971414 5.99933403 21.24402847 5.98144531 23.5899353 C5.99338386 25.23283182 6.00824176 26.87570947 6.02587891 28.51855469 C6.06364521 32.82195272 6.05914865 37.12432254 6.04644775 41.42782593 C6.04310653 44.95094193 6.06957514 48.47354087 6.09761047 51.99652672 C6.1549455 59.26362909 6.19352731 66.53110053 6.17675781 73.7984314 C6.17562988 75.08446259 6.17450195 76.37049377 6.17333984 77.69549561 C6.04394531 80.6914978 6.04394531 80.6914978 5.04394531 82.6914978 C-4.52605469 82.6914978 -14.09605469 82.6914978 -23.95605469 82.6914978 C-24.04650519 72.88596765 -24.11985668 63.0807156 -24.16330338 53.27486229 C-24.18415801 48.72136278 -24.21243662 44.16816406 -24.2578125 39.61483765 C-24.30134637 35.21872638 -24.32520777 30.82290401 -24.33556366 26.42659378 C-24.34294153 24.75127237 -24.35734897 23.07596636 -24.37897491 21.40076828 C-24.40811012 19.04990504 -24.41200661 16.70022804 -24.41015625 14.34921265 C-24.43172791 13.31558594 -24.43172791 13.31558594 -24.45373535 12.26107788 C-24.41162629 7.30076928 -23.0452693 4.51648655 -19.95605469 0.6914978 C-13.53551698 -3.96339204 -6.75117491 -4.51619643 0 0 Z "
     fill="#EBEADE"
     transform="translate(108.9560546875,203.30850219726563)"
     id="path950" />
  <path
     d="m 0,0 2.7087212,-0.0091393 3.0005665,0.00536203 3.1814817,-0.0062201 c 3.5594446,-0.0057073 7.1188506,-0.00420818 10.6782986,-0.00279403 2.56109,-0.0025815 5.122179,-0.005594 7.683267,-0.0090034 6.327061,-0.0075955 12.654113,-0.0097738 18.981177,-0.01032905 7.574492,-9.121e-4 15.148975,-0.007575 22.723463,-0.01434683 18.30853,-0.01607735 36.617055,-0.02196496 54.925595,-0.02674874 8.65583,-0.0023339 17.31166,-0.0059363 25.96748,-0.0096954 29.61233,-0.01283619 59.22466,-0.023556 88.837,-0.0270026 l 5.57897,-6.6535e-4 5.59267,-6.6145e-4 c 3.74013,-4.4256e-4 7.48027,-8.8968e-4 11.2204,-0.00134 l 2.81012,-3.3148e-4 c 30.0853,-0.003633 60.17058,-0.0195599 90.25587,-0.0428589 31.7859,-0.0245712 63.5718,-0.0383147 95.35771,-0.0395111 3.48621,-1.7146e-4 6.97241,-3.869e-4 10.45861,-6.3443e-4 l 2.60134,-1.69e-4 c 13.84081,-0.001153 27.68159,-0.0121934 41.52238,-0.0267181 13.89935,-0.0143344 27.79867,-0.0176193 41.69803,-0.00956 8.26668,0.004471 16.53325,5.3909e-4 24.79992,-0.0152385 6.159,-0.0108383 12.31789,-0.006154 18.47689,0.004772 2.502,0.001975 5.004,-0.001201 7.50599,-0.009844 3.38194,-0.01095 6.76336,-0.003707 10.14529,0.008392 l 2.99347,-0.0230157 2.71631,0.0212064 2.34544,-7.4e-4 c 2.52605,0.47140034 3.29857,1.51898633 5.00672,3.37448613 l 2.5625,0.5 c 2.4375,0.5 2.4375,0.5 4.4375,3.5 l 1.625,1.5625 c 1.375,1.4375009 1.375,1.4375009 1.375,3.4375009 l 1,3 3,1 v 7 l 2,1 c -0.0372,17.0381 -0.0972,34.07595 -0.1839,51.113866 -0.0397,7.911755 -0.0722,15.823411 -0.0871,23.735255 -0.013,6.899327 -0.0401,13.798437 -0.0836,20.697647 -0.0226,3.65008 -0.0383,7.2999 -0.0373,10.95007 8.9e-4,4.08388 -0.0295,8.16697 -0.0622,12.25072 l 0.0153,3.63135 c -0.1291,10.43371 -1.5353,16.15039 -8.23532,24.19041 -2.25,1.3125 -2.11742,2.68252 -3.86742,3.37002 l -3.51907,2.48614 c -5.79891,1.2294 -10.54435,1.72151 -16.45106,1.71877 l -3.18601,0.0104 c -3.53444,0.0103 -7.06885,0.0136 -10.60331,0.017 -2.55501,0.006 -5.11003,0.0124 -7.66505,0.0192 -5.56099,0.0141 -11.12197,0.0246 -16.68297,0.0326 -8.26932,0.0119 -16.53862,0.0295 -24.80793,0.0481 -15.62686,0.0349 -31.25373,0.0631 -46.88061,0.089 -12.06452,0.02 -24.12905,0.0416 -36.19357,0.0643 -3.47161,0.007 -6.94321,0.013 -10.41482,0.0195 l -2.61521,0.005 c -24.27519,0.0454 -48.55038,0.0887 -72.82558,0.12755 l -2.77356,0.004 c -4.63912,0.007 -9.27824,0.0148 -13.91736,0.0223 l -2.79202,0.004 -5.58968,0.009 c -29.0024,0.0464 -58.00477,0.1009 -87.00715,0.16155 -32.57406,0.0681 -65.14812,0.12948 -97.72221,0.18125 -3.47129,0.006 -6.94259,0.0111 -10.41388,0.0167 l -2.59012,0.004 c -13.7702,0.0223 -27.54038,0.051 -41.31057,0.0819 -13.830441,0.0309 -27.660881,0.0543 -41.49135,0.0701 -8.221628,0.01 -16.4432,0.0248 -24.664801,0.0479 -6.130558,0.0166 -12.261084,0.0229 -18.391664,0.0249 -2.486428,0.002 -4.972855,0.008 -7.459266,0.018 -3.367966,0.0125 -6.7357147,0.0127 -10.103698,0.01 l -2.9555358,0.0199 c -4.8843514,-0.018 -8.8475486,-0.33221 -13.4303502,-2.25319 l -1.1875,-0.625 -2.125,-0.8125 c -6.175562,-4.54635 -5.456812,-2.10885 -7.15625,-6.1875 l -2,-3.09375 -0.970034,-4.33378 c -1.005973,-2.89848 -0.802722,-5.60603 -0.790678,-8.60694 l -3.51e-4,-3.49589 0.03108,-3.82389 c 0.0039,-1.34557 0.0069,-2.69115 0.0092,-4.03673 0.0091,-3.65323 0.0313,-7.30627 0.05694,-10.95943 0.02057,-3.0538 0.03553,-6.10762 0.05076,-9.16146 0.03637,-7.21024 0.08421,-14.42034 0.138466,-21.63046 0.05561,-7.42414 0.08912,-14.848152 0.112108,-22.272455 0.02072,-6.3833 0.05673,-12.766396 0.104524,-19.149551 0.02827,-3.808139 0.05054,-7.616073 0.05748,-11.424316 0.0071,-3.586335 0.03333,-7.172043 0.07383,-10.758152 0.01716,-1.931657 0.01497,-3.863456 0.01206,-5.795187 0.125377,-8.713148 1.599402,-16.11986 7.583359,-22.7705079 l 1.4375,-1.6523437 c 2.77385,-2.5034 9.7292566,-3.5797316 13.4754124,-3.5797316 L -10.367238,1.1679934 C -8.0469893,0.0086363 -2.5830509,0.00171965 0,0 Z m -2.2268152,4.1276505 c -3.0542078,1.110621 -4.8398537,-3.36352123 -8.2873408,-2.8279998 -2.838102,1.2534478 -2.881789,0.5306263 -6.126682,3.1375636 l -4.954807,5.447145 c -3.074364,4.4531017 -2.899407,10.2695047 -2.901571,15.7310967 l 2.466328,4.218387 -0.325356,5.889266 -0.0053,3.840455 c -0.0045,3.46489 -0.0028,6.92975 3.79e-4,10.39464 0.0025,3.633555 1.82e-4,7.267108 -0.0014,10.900663 -0.0018,6.10205 5.74e-4,12.204089 0.0053,18.306137 0.0054,7.043657 0.0037,14.087286 -0.0018,21.130946 -0.0045,6.05793 -0.0052,12.11585 -0.0026,18.17379 0.0016,3.61351 0.0018,7.22701 -0.0015,10.84053 -0.0034,4.03086 0.0013,8.06167 0.0069,12.09253 l -0.0061,3.60713 c -0.568914,9.45298 -1.443914,9.70298 1.760529,18.05522 l 1.375,2.3125 c -0.07003,2.86526 2.674824,4.65686 2.828125,5.26563 1.630586,2.61549 -0.795473,-0.72135 1.296875,0.98437 l 2.453125,2.03516 2.171875,1.33984 2.2729724,0.69331 c 4.227186,2.03291 7.96002218,1.84223 12.5938411,1.80363 l 2.9666849,0.0114 c 3.3007246,0.009 6.6010216,-0.004 9.9017306,-0.0158 2.382706,0.002 4.765411,0.005 7.148113,0.01 5.191565,0.007 10.38304,0.004 15.574595,-0.006 7.721637,-0.0159 15.443203,-0.0145 23.164851,-0.01 12.998074,0.008 25.996105,0.001 38.994168,-0.0136 12.89628,-0.0145 25.79253,-0.0233 38.68882,-0.0242 l 2.4319,-1.8e-4 c 3.25811,-2.3e-4 6.51623,-4.2e-4 9.77435,-5.5e-4 29.7224,-0.001 59.44478,-0.0169 89.16717,-0.0416 27.98991,-0.0232 55.97981,-0.0375 83.96973,-0.041 l 2.60577,-3.3e-4 c 3.46714,-4.5e-4 6.93428,-8.9e-4 10.40142,-0.001 l 5.18481,-6.6e-4 5.17295,-6.6e-4 c 27.58709,-0.004 55.17418,-0.015 82.76126,-0.0278 8.05443,-0.004 16.10886,-0.007 24.16329,-0.009 16.94886,-0.005 33.89772,-0.0121 50.84658,-0.0282 7.00394,-0.007 14.00787,-0.0118 21.01182,-0.0125 28.83317,-0.004 57.63624,-0.12339 86.45317,-1.15958 l 0.53033,-0.14384 5.54159,-4.00521 3.34229,-2.80676 2.58579,0.95581 v -5 l 3,-1 c 1.15522,-2.47131 1.15522,-2.47131 2,-5 l 1,-1 c 0.0963,-1.75893 0.12188,-3.52177 0.12026,-5.28334 l 0.004,-3.47182 -0.0109,-3.84274 c -2.8e-4,-1.34003 -1.2e-4,-2.68006 4.4e-4,-4.0201 2.9e-4,-3.64859 -0.006,-7.29716 -0.0126,-10.94575 -0.006,-3.80902 -0.007,-7.61805 -0.008,-11.42708 -0.003,-7.21775 -0.0113,-14.43548 -0.0213,-21.653221 -0.0112,-8.215101 -0.0167,-16.430202 -0.0217,-24.645309 -0.0105,-16.903555 -0.0281,-33.807096 -0.0503,-50.710639 h -3 l 0.375,-3.5625 c -0.0314,-4.433005 -1.36304,-6.786542 -4.3789,-9.9687505 -3.05196,-2.245671 -6.25861,-3.047396 -9.92188,-3.8632812 l -2.07422,-0.6054688 -1,-2 C 554.35989,2.0934297 495.94659,2.0615864 437.53329,2.0429642 l -2.61786,-8.367e-4 c -18.77262,-0.00599 -37.54523,-0.011526 -56.31785,-0.016608 -9.20546,-0.00249 -18.41092,-0.00509 -27.61639,-0.00773 L 348.2052,2.016997 C 318.48757,2.008467 288.76994,1.993439 259.05231,1.975058 228.52547,1.956211 197.99863,1.943886 167.47179,1.939822 c -4.3071,-5.763e-4 -8.61419,-0.00123 -12.92128,-0.00192 l -2.5689,-4.086e-4 C 138.30973,1.9351197 124.63787,1.925832 110.966,1.9139864 97.236697,1.9022377 83.50741,1.8977081 69.778106,1.9006477 61.611226,1.9021777 53.444394,1.8980677 45.277523,1.8860557 39.194514,1.8777157 33.111557,1.8797057 27.028544,1.885853 24.556114,1.8867043 22.083681,1.884113 19.611259,1.877883 16.271668,1.869953 12.932315,1.874123 9.5927287,1.881553 L 6.6284568,1.865632 3.9521558,1.879252 1.6351345,1.8783067 c -2.10779163,0.09052 -2.10779163,0.09052 -3.8619497,2.2493423 z"
     fill="#cd7044"
     transform="translate(60.226815,450.87235)"
     id="path952"
     sodipodi:nodetypes="ccccccccssscssssssscccccccccccccccccccscccccccccccscsssssssssssssccccccccccccccccccccccccccccccccccccccccscsccccccccccccccscssssssssssssscccccccccccccccccscccccccsssssssssccccccccccc"
     style="fill:#cd5f38;fill-opacity:1" />
  <path
     d="M0 0 C5.88810711 4.06121674 10.1047575 9.24638989 11.75 16.20703125 C12.50196201 23.53585503 11.9250179 29.06806412 7.75 35.20703125 C7.32589844 35.83609375 6.90179687 36.46515625 6.46484375 37.11328125 C2.16993957 42.76006334 -2.96673844 45.61518457 -9.9921875 46.5859375 C-17.20223991 46.89551039 -22.56128721 45.51848932 -27.96875 40.6640625 C-34.13242519 34.06228295 -35.9127116 27.18225298 -35.6640625 18.2421875 C-34.81744324 12.03630862 -32.0668549 6.53107439 -27.4375 2.26953125 C-18.78944302 -3.32627032 -9.33774585 -5.32778644 0 0 Z "
     fill="#FA6221"
     transform="translate(520.25,518.79296875)"
     id="path954" />
  <path
     d="M0 0 C4.92115652 2.3596042 8.04659719 6.30209147 9.93359375 11.3671875 C11.41149262 19.29409961 9.70945792 25.63833992 5.8359375 32.6015625 C0.41496468 40.48256611 -7.61675229 46.42009434 -17.06640625 48.3671875 C-23.55137857 49.13920801 -28.07723054 48.56974774 -33.44140625 44.73046875 C-37.3963924 41.41246355 -38.77420832 38.35659704 -39.26953125 33.2890625 C-39.48313131 23.39225952 -35.65433815 16.17467507 -29.06640625 8.8671875 C-21.18333936 1.30415965 -10.8260968 -3.31536424 0 0 Z "
     fill="#FBFAE8"
     transform="translate(336.06640625,239.6328125)"
     id="path956" />
  <path
     d="M0 0 C2.43831347 2.08148711 3.29045181 3.34985404 4.5625 6.1875 C5.5525 6.5175 6.5425 6.8475 7.5625 7.1875 C6.9025 7.1875 6.2425 7.1875 5.5625 7.1875 C5.61579468 9.10828369 5.61579468 9.10828369 5.67016602 11.06787109 C5.80137627 15.85742893 5.92423324 20.64717207 6.04467773 25.43701172 C6.09776732 27.50282595 6.15306674 29.5685847 6.21069336 31.63427734 C6.2935357 34.61804238 6.36820388 37.6019222 6.44140625 40.5859375 C6.46844131 41.49677094 6.49547638 42.40760437 6.52333069 43.34603882 C6.54342697 44.22619659 6.56352325 45.10635437 6.58422852 46.01318359 C6.60421402 46.77263275 6.62419952 47.53208191 6.64479065 48.31454468 C6.52150002 52.61890328 5.99097535 56.90274652 5.5625 61.1875 C-4.0075 61.1875 -13.5775 61.1875 -23.4375 61.1875 C-23.52944975 53.62463277 -23.60905778 46.06371375 -23.65722656 38.50073242 C-23.67731149 35.92937641 -23.70458479 33.35806591 -23.73925781 30.78686523 C-23.78791081 27.08566034 -23.81050083 23.38506067 -23.828125 19.68359375 C-23.85909271 17.96601112 -23.85909271 17.96601112 -23.89068604 16.21372986 C-23.8925214 9.64926126 -23.47484271 5.46713687 -19.4375 0.1875 C-12.84409887 -3.949536 -6.69849511 -3.53193378 0 0 Z "
     fill="#EAEADD"
     transform="translate(213.4375,224.8125)"
     id="path958" />
  <path
     d="M0 0 C12.87 0.495 12.87 0.495 26 1 C26 14.2 26 27.4 26 41 C17.75 41 9.5 41 1 41 C0.67 27.47 0.34 13.94 0 0 Z "
     fill="#EAECE1"
     transform="translate(243,245)"
     id="path964" />
  <path
     d="M0 0 C0.66 0 1.32 0 2 0 C2.66 0.99 3.32 1.98 4 3 C4.804375 3.7734375 4.804375 3.7734375 5.625 4.5625 C7 6 7 6 7 8 C7.33 8.99 7.66 9.98 8 11 C8.99 11.33 9.98 11.66 11 12 C11 14.31 11 16.62 11 19 C11.66 19.33 12.32 19.66 13 20 C12.9627651 37.03810008 12.90280444 54.07595028 12.81609726 71.11386681 C12.77635844 79.0256215 12.74393987 86.93727748 12.72900391 94.84912109 C12.71596053 101.74844916 12.68892778 108.64755953 12.64538693 115.54676497 C12.62283207 119.1968532 12.6070857 122.84667353 12.60811615 126.49683762 C12.60900608 130.58071673 12.57865151 134.66381057 12.54589844 138.74755859 C12.5509288 139.94590332 12.55595917 141.14424805 12.56114197 142.37890625 C12.45801331 150.71362758 11.3158439 158.13151545 5.75 164.625 C5.1725 165.07875 4.595 165.5325 4 166 C4 164.35 4 162.7 4 161 C4.66 160.67 5.32 160.34 6 160 C6.70211894 158.34795544 7.36971413 156.68076231 8 155 C8.33 154.67 8.66 154.34 9 154 C9.10852231 152.24144233 9.14687242 150.47852601 9.15821838 148.71665955 C9.1680072 147.57095993 9.17779602 146.42526031 9.18788147 145.24484253 C9.19363693 143.97673737 9.1993924 142.7086322 9.20532227 141.40209961 C9.21489566 140.06206456 9.22490542 138.72203256 9.23532104 137.38200378 C9.26243458 133.73343851 9.2834091 130.08486021 9.30332303 126.43624949 C9.32514295 122.62719884 9.35255111 118.81818861 9.37937927 115.00917053 C9.42936034 107.79145178 9.47427901 100.57371066 9.51740164 93.35594803 C9.56672785 85.14081872 9.62166304 76.92572996 9.67708123 68.71063983 C9.79098435 51.80713068 9.89780515 34.90358391 10 18 C9.01 18 8.02 18 7 18 C6.9071875 16.1746875 6.9071875 16.1746875 6.8125 14.3125 C6.28684155 9.81254505 4.41107948 7.97376159 1 5 C1 4.34 1 3.68 1 3 C0.29875 2.87625 -0.4025 2.7525 -1.125 2.625 C-4.17656387 1.96161655 -7.05340938 1.02788045 -10 0 C-10 -0.66 -10 -1.32 -10 -2 C-211.96 -2 -413.92 -2 -622 -2 C-622 -2.33 -622 -2.66 -622 -3 C-563.71027175 -3.11246865 -505.42054128 -3.22373879 -447.13079834 -3.32835388 C-446.26859119 -3.32990168 -445.40638404 -3.33144947 -444.51804941 -3.33304417 C-425.78160397 -3.36667149 -407.04515815 -3.40007492 -388.3087119 -3.4332476 C-379.12084692 -3.44951598 -369.93298203 -3.46583385 -360.74511719 -3.48217773 C-359.8307965 -3.48380334 -358.9164758 -3.48542894 -357.97444842 -3.4871038 C-328.31929465 -3.53985191 -298.66414816 -3.59587051 -269.00900366 -3.65357857 C-238.54373058 -3.71284589 -208.07845321 -3.76882682 -177.61316652 -3.82065109 C-173.31374334 -3.82796635 -169.01432023 -3.83531931 -164.71489716 -3.84269524 C-163.86867875 -3.84414581 -163.02246035 -3.84559638 -162.15059897 -3.84709091 C-148.5088712 -3.87057244 -134.86715242 -3.89753573 -121.22543379 -3.92578938 C-107.52299229 -3.95409491 -93.8205481 -3.97876019 -80.11809328 -3.99967117 C-71.96941715 -4.01221834 -63.82075758 -4.02759502 -55.67209473 -4.04695946 C-49.59909578 -4.06108474 -43.52610125 -4.06999941 -37.45308921 -4.07683109 C-34.98735146 -4.08043226 -32.52161554 -4.08575985 -30.05588558 -4.09292836 C-26.72058503 -4.1023802 -23.38533427 -4.10571274 -20.05002213 -4.10743046 C-19.07867077 -4.11166182 -18.10731941 -4.11589318 -17.10653317 -4.12025276 C-16.22029267 -4.11943888 -15.33405217 -4.11862501 -14.4209559 -4.11778647 C-13.65789868 -4.11919029 -12.89484147 -4.12059412 -12.10866131 -4.12204048 C-7.48555238 -3.8544743 -4.10883369 -2.05441685 0 0 Z "
     fill="#E26F44"
     transform="translate(683,455)"
     id="path966" />
  <path
     d="m 0,0 h 66 c 1.079172,3.2375168 1.114256,5.5775177 1.097656,8.9804688 l -0.0098,3.5253902 -0.02539,3.681641 -0.01367,3.716797 c -0.0118,3.03195 1.133353,16.341215 -0.730966,14.810615 L 64.84375,29.125 C 63.511719,27.113281 63.667969,26.988281 62.1875,24.3125 57.324426,15.984192 51.216012,11.019936 42,8 39.366797,7.7843015 36.879203,7.6664911 34.25,7.6875 l -2.151855,0.012695 C 23.196559,7.8913648 15.874595,10.209037 9.40625,16.566406 4.4384367,22.009084 1.8977145,27.638741 1,35 H 0 Z"
     fill="#2a3d4b"
     transform="translate(332,111)"
     id="path970"
     sodipodi:nodetypes="cccccccccccccccc" />
  <path
     d="M0 0 C77.55 0 155.1 0 235 0 C235.33 0.99 235.66 1.98 236 3 C152.84 3 69.68 3 -16 3 C-16 2.67 -16 2.34 -16 2 C-10.72 2 -5.44 2 0 2 C0 1.34 0 0.68 0 0 Z "
     fill="#F26229"
     id="path972"
     transform="translate(438,453)" />
  <path
     d="M0 0 C3.3 -0.103125 6.6 -0.20625 10 -0.3125 C11.53527344 -0.38078003 11.53527344 -0.38078003 13.1015625 -0.45043945 C19.59804444 -0.54786154 24.04469574 0.66493686 29 5 C30.72732636 8.45465272 30.35415682 12.21576878 30 16 C28.67927211 19.3751935 27.56752366 20.62256038 24.5625 22.62109375 C19.67116051 24.51434248 15.31179959 24.32348802 10.125 24.1875 C6.78375 24.125625 3.4425 24.06375 0 24 C0 16.08 0 8.16 0 0 Z "
     fill="#F75F23"
     transform="translate(209,516)"
     id="path974" />
  <path
     d="M0 0 C9.24 0 18.48 0 28 0 C28 7.59 28 15.18 28 23 C18.76 23 9.52 23 0 23 C0 15.41 0 7.82 0 0 Z "
     fill="#647782"
     transform="translate(138,286)"
     id="path976" />
  <path
     d="M0 0 C9.24 0 18.48 0 28 0 C28 7.26 28 14.52 28 22 C18.76 22.33 9.52 22.66 0 23 C0 15.41 0 7.82 0 0 Z "
     fill="#627681"
     transform="translate(85,286)"
     id="path978" />
  <path
     d="M0 0 C2.71169391 -0.29434334 5.19523458 -0.39116317 7.90921021 -0.36076355 C8.73579663 -0.36332682 9.56238306 -0.3658901 10.41401756 -0.36853105 C13.19954645 -0.37349487 15.98454011 -0.35693349 18.77001953 -0.34057617 C20.76043688 -0.33973046 22.75085517 -0.34020395 24.74127197 -0.34190369 C30.15841746 -0.34276725 35.57536517 -0.32508321 40.99246454 -0.30418181 C46.64860192 -0.28547499 52.30474344 -0.28366932 57.96090698 -0.28010559 C68.67775599 -0.27076746 79.39451359 -0.2461298 90.11132228 -0.21605712 C102.30943087 -0.18256805 114.50754373 -0.16604094 126.70568681 -0.15097082 C151.80384195 -0.11958176 176.90191586 -0.06678697 202 0 C201.67 0.99 201.34 1.98 201 3 C134.01 3 67.02 3 -2 3 C-1.34 2.01 -0.68 1.02 0 0 Z "
     fill="#F3632A"
     transform="translate(60,453)"
     id="path980" />
  <path
     d="M0 0 C9.24 0 18.48 0 28 0 C28 6.93 28 13.86 28 21 C18.76 21 9.52 21 0 21 C0 14.07 0 7.14 0 0 Z "
     fill="#627681"
     transform="translate(190,287)"
     id="path982" />
  <path
     d="M0 0 C8.70375 -0.061875 17.4075 -0.12375 26.375 -0.1875 C29.10313965 -0.21481201 31.8312793 -0.24212402 34.64208984 -0.27026367 C36.83170124 -0.27903476 39.02131757 -0.28667722 41.2109375 -0.29296875 C42.32573486 -0.30831665 43.44053223 -0.32366455 44.58911133 -0.33947754 C51.56622525 -0.34178733 57.45050024 0.56563143 64 3 C64 3.33 64 3.66 64 4 C60.7 4 57.4 4 54 4 C53.34 5.32 52.68 6.64 52 8 C50.68 8 49.36 8 48 8 C48 7.34 48 6.68 48 6 C32.49 6 16.98 6 1 6 C1 35.37 1 64.74 1 95 C13.375 94.505 13.375 94.505 26 94 C26 86.41 26 78.82 26 71 C26.33 71 26.66 71 27 71 C27 79.25 27 87.5 27 96 C18.09 96 9.18 96 0 96 C0 64.32 0 32.64 0 0 Z "
     fill="#FCFBE0"
     transform="translate(182,492)"
     id="path988" />
  <path
     d="M 0.08838835,-3.6239222 1.9116117,-2.8284271 3.6906408,-1.065864 6.376301,0.93857775 c 1.375,1.43750005 2.656631,1.79105335 2.656631,3.79105335 l 1.486136,2.0719224 1.364815,2.8561553 0.486136,2.6247772 L 13,20 c -0.03724,17.0381 -0.0972,34.07595 -0.183903,51.113867 -0.03974,7.911754 -0.07216,15.82341 -0.08709,23.735254 -0.01304,6.899329 -0.04008,13.798439 -0.08362,20.697639 -0.02255,3.65009 -0.0383,7.29991 -0.03727,10.95008 8.9e-4,4.08388 -0.02946,8.16697 -0.06222,12.25072 l 0.01524,3.63135 C 12.458013,150.71363 11.315844,158.13152 5.75,164.625 L 4,166 0.99479619,165.552 6,160 c 0.7021189,-1.65204 1.3697141,-3.31924 2,-5 l 1,-1 c 0.1085223,-1.75856 0.1468724,-3.52147 0.1582184,-5.28334 l 0.029663,-3.47182 0.017441,-3.84274 c 0.00957,-1.34004 0.019583,-2.68007 0.029999,-4.0201 0.027114,-3.64856 0.048088,-7.29714 0.068002,-10.94575 0.02182,-3.80905 0.049228,-7.61806 0.076056,-11.42708 0.049981,-7.21772 0.0949,-14.43546 0.1380223,-21.653222 C 9.5667279,85.140819 9.621663,76.92573 9.6770812,68.71064 9.7909844,51.807131 9.8978051,34.903584 10,18 H 7 L 6.8125,14.3125 C 6.2868415,9.812545 4.4110795,7.9737616 1,5 V 3 L -1.125,2.625 C -4.1765639,1.9616165 -7.0534094,1.0278804 -10,0 v -2 h -51 v -1 c 7.189784,-0.1683041 14.37972,-0.3281799 21.569824,-0.4821777 2.446333,-0.053393 4.892623,-0.1087201 7.338867,-0.1660157 3.514721,-0.081986 7.029531,-0.1570313 10.544434,-0.2307129 l 3.317932,-0.081924 3.093201,-0.060898 2.718567,-0.060562 c 4.8001614,0.1634174 7.800949,-0.5239193 12.50556335,0.4583681 z"
     fill="#cd5f38"
     id="path996"
     transform="translate(683,455)"
     sodipodi:nodetypes="ccccccccccscccccccccccccccccsccccccccccccccccc" />
  <path
     d="M0 0 C0.99 0.99 0.99 0.99 2 2 C-49.81 2 -101.62 2 -155 2 C-155 1.67 -155 1.34 -155 1 C-129.30400127 0.33454814 -103.61830482 -0.04539356 -77.9140625 -0.03125 C-76.42013757 -0.03048714 -76.42013757 -0.03048714 -74.89603233 -0.02970886 C-64.81619819 -0.02304228 -54.73643316 -0.00482748 -44.65665054 0.02805328 C-40.82904632 0.03980599 -37.00143884 0.04787223 -33.17382431 0.05543518 C-30.51893869 0.06231922 -27.8641215 0.07494095 -25.20925903 0.08776855 C-23.58441226 0.09136363 -21.95956482 0.09467533 -20.3347168 0.09765625 C-19.61958703 0.10282005 -18.90445726 0.10798386 -18.1676569 0.11330414 C-13.69982887 0.11378169 -9.39321325 -0.25076304 -4.96870136 -0.88233948 C-3 -1 -3 -1 0 0 Z "
     fill="#E4EEEA"
     transform="translate(442,182)"
     id="path1024" />
  <path
     d="M0 0 C2.31 0 4.62 0 7 0 C7 0.66 7 1.32 7 2 C7.60134766 1.99476318 8.20269531 1.98952637 8.82226562 1.98413086 C24.24472347 1.86901614 39.59701344 2.22407249 55 3 C55 3.33 55 3.66 55 4 C31.57 4 8.14 4 -16 4 C-14 2 -14 2 -10.9609375 1.8046875 C-9.18589844 1.83949219 -9.18589844 1.83949219 -7.375 1.875 C-5.59222656 1.90207031 -5.59222656 1.90207031 -3.7734375 1.9296875 C-2.85820313 1.95289063 -1.94296875 1.97609375 -1 2 C-0.67 1.34 -0.34 0.68 0 0 Z "
     fill="#F2F7F1"
     transform="translate(550,389)"
     id="path1064" />
  <path
     d="M0 0 C0.99 0 1.98 0 3 0 C3.33 2.31 3.66 4.62 4 7 C2.35 7.66 0.7 8.32 -1 9 C-1.33 8.34 -1.66 7.68 -2 7 C-2.103125 8.11375 -2.20625 9.2275 -2.3125 10.375 C-2.539375 11.57125 -2.76625 12.7675 -3 14 C-3.99 14.66 -4.98 15.32 -6 16 C-6.38411275 18.609621 -6.60293197 21.0058074 -6.6875 23.625 C-6.72166016 24.33140625 -6.75582031 25.0378125 -6.79101562 25.765625 C-6.87351308 27.50985688 -6.93843335 29.25490395 -7 31 C-7.33 31 -7.66 31 -8 31 C-8.39473684 12.92982456 -8.39473684 12.92982456 -6 7 C-3.4375 4.6875 -3.4375 4.6875 -1 3 C-0.67 2.01 -0.34 1.02 0 0 Z "
     fill="#EC5F23"
     transform="translate(46,459)"
     id="path1112" />
  <path
     d="M0 0 C0.66 0 1.32 0 2 0 C2 0.66 2 1.32 2 2 C2.66 2 3.32 2 4 2 C6.21317199 4.21317199 6.30919261 5.06406858 7 8 C7.350625 8.680625 7.70125 9.36125 8.0625 10.0625 C9 12 9 12 9 15 C8.34 15 7.68 15 7 15 C6.67 15.99 6.34 16.98 6 18 C5.01 17.67 4.02 17.34 3 17 C2.92652344 15.91332031 2.92652344 15.91332031 2.8515625 14.8046875 C2.44793848 9.58541133 1.98724193 4.90186342 0 0 Z "
     fill="#F8F7E8"
     transform="translate(237,520)"
     id="path1156" />
  <path
     d="M0 0 C4.95 0 9.9 0 15 0 C15 2.31 15 4.62 15 7 C12.36 7 9.72 7 7 7 C7.33 5.02 7.66 3.04 8 1 C5.36 1 2.72 1 0 1 C0 0.67 0 0.34 0 0 Z "
     fill="#F9F9DB"
     transform="translate(643,493)"
     id="path1178" />
  <path
     d="M0 0 C1 3 1 3 -0.375 6.125 C-2 9 -2 9 -3 10 C-4.66617115 10.04063832 -6.33388095 10.042721 -8 10 C-8.33 9.01 -8.66 8.02 -9 7 C-7.39598746 3.79197492 -4.19662773 3.36998331 -1 2 C-0.67 1.34 -0.34 0.68 0 0 Z "
     fill="#F9F8F3"
     transform="translate(83,563)"
     id="path1254" />
  <path
     d="M0 0 C0.66 0 1.32 0 2 0 C3.38529821 5.45461169 4.2396943 10.36718401 4 16 C3.01 16 2.02 16 1 16 C-0.06723961 12.53777385 -0.10173486 9.35960734 -0.0625 5.75 C-0.04896484 4.13351562 -0.04896484 4.13351562 -0.03515625 2.484375 C-0.02355469 1.66453125 -0.01195312 0.8446875 0 0 Z "
     fill="#F5FEE0"
     transform="translate(364,538)"
     id="path1258" />
  <path
     d="M0 0 C0.33 0 0.66 0 1 0 C1.66 2.31 2.32 4.62 3 7 C10.92 7.33 18.84 7.66 27 8 C27 8.33 27 8.66 27 9 C17.76 9 8.52 9 -1 9 C-0.67 6.03 -0.34 3.06 0 0 Z "
     fill="#E0E6E0"
     transform="translate(139,277)"
     id="path1284" />
  <path
     d="M0 0 C2.31 0 4.62 0 7 0 C7 0.99 7 1.98 7 3 C5.35 3.66 3.7 4.32 2 5 C1.67 7.64 1.34 10.28 1 13 C0.67 13 0.34 13 0 13 C0 8.71 0 4.42 0 0 Z "
     fill="#E5EDE5"
     transform="translate(463,246)"
     id="path1308" />
  <path
     d="M0 0 C0.33 0 0.66 0 1 0 C1.06058594 0.59167969 1.12117188 1.18335938 1.18359375 1.79296875 C1.62012371 5.90978208 2.08671346 9.95544533 3 14 C2.01 14 1.02 14 0 14 C-0.99293628 11.02119115 -1.13406411 8.98398802 -1.125 5.875 C-1.12757812 4.98554687 -1.13015625 4.09609375 -1.1328125 3.1796875 C-1 1 -1 1 0 0 Z "
     fill="#F4FCEE"
     transform="translate(75,517)"
     id="path1314" />
  <path
     d="M0 0 C4.95 0.33 9.9 0.66 15 1 C14.67 1.66 14.34 2.32 14 3 C13.34 3 12.68 3 12 3 C12 3.66 12 4.32 12 5 C10.35 4.67 8.7 4.34 7 4 C7 3.34 7 2.68 7 2 C4.69 2 2.38 2 0 2 C0 1.34 0 0.68 0 0 Z "
     fill="#FBF7D6"
     transform="translate(500,565)"
     id="path1320" />
  <path
     d="M0 0 C1.65 0 3.3 0 5 0 C4.67 2.31 4.34 4.62 4 7 C2.68 6.67 1.36 6.34 0 6 C0 4.02 0 2.04 0 0 Z "
     fill="#FBF7F1"
     transform="translate(413,514)"
     id="path1386" />
  <path
     d="M0 0 C-0.99 1.485 -0.99 1.485 -2 3 C-5.625 3.1875 -5.625 3.1875 -9 3 C-9 2.01 -9 1.02 -9 0 C-5.93109813 -1.53445094 -3.29905734 -0.54984289 0 0 Z "
     fill="#F7FDF4"
     transform="translate(537,578)"
     id="path1394" />
  <path
     d="M0 0 C0.66 0.33 1.32 0.66 2 1 C1.67 2.32 1.34 3.64 1 5 C-0.65 5.33 -2.3 5.66 -4 6 C-3.67 4.35 -3.34 2.7 -3 1 C-2.01 0.67 -1.02 0.34 0 0 Z "
     fill="#FDF6DC"
     transform="translate(530,561)"
     id="path1398" />
  <path
     d="M0 0 C0.66 0.99 1.32 1.98 2 3 C-2.1795645 5.78637633 -4.14668677 4.79562512 -9 4 C-9 3.34 -9 2.68 -9 2 C-7.329375 2.061875 -7.329375 2.061875 -5.625 2.125 C-1.95633975 2.41121859 -1.95633975 2.41121859 0 0 Z "
     fill="#EAF0EB"
     transform="translate(599,319)"
     id="path1404" />
  <path
     d="M0 0 C0.33 0 0.66 0 1 0 C3.28571429 8.42857143 3.28571429 8.42857143 3 13 C1.66666667 11.66666667 0.33333333 10.33333333 -1 9 C-0.9765625 6.8359375 -0.9765625 6.8359375 -0.625 4.375 C-0.51414062 3.55773437 -0.40328125 2.74046875 -0.2890625 1.8984375 C-0.19367188 1.27195312 -0.09828125 0.64546875 0 0 Z "
     fill="#FCF8DA"
     transform="translate(482,538)"
     id="path1430" />
  <path
     d="M0 0 C1.65 0 3.3 0 5 0 C5.33 0.99 5.66 1.98 6 3 C8.01508358 3.73323796 8.01508358 3.73323796 10 4 C2.57142857 4.28571429 2.57142857 4.28571429 -1 2 C-0.67 1.34 -0.34 0.68 0 0 Z "
     fill="#F0FBE2"
     transform="translate(521,494)"
     id="path1436" />
  <path
     d="M0 0 C3.4375 1.25 3.4375 1.25 7 3 C7.9375 5.1875 7.9375 5.1875 8 7 C5.125 6.3125 5.125 6.3125 2 5 C0.625 2.375 0.625 2.375 0 0 Z "
     fill="#F4FEF6"
     transform="translate(363,574)"
     id="path1446" />
  <path
     d="M0 0 C0 1.32 0 2.64 0 4 C-1.98 4 -3.96 4 -6 4 C-6 3.01 -6 2.02 -6 1 C-4 0 -4 0 0 0 Z "
     fill="#F4FDF2"
     transform="translate(422,577)"
     id="path1468" />
  <path
     d="M0 0 C1.32 0 2.64 0 4 0 C4 0.66 4 1.32 4 2 C4.99 2.33 5.98 2.66 7 3 C7 4.32 7 5.64 7 7 C6.34 7 5.68 7 5 7 C5 6.01 5 5.02 5 4 C3.35 3.67 1.7 3.34 0 3 C0 2.01 0 1.02 0 0 Z "
     fill="#EFFBE4"
     transform="translate(249,501)"
     id="path1510" />
  <path
     d="M0 0 C0.66 0 1.32 0 2 0 C2.96070434 2.88211302 3.10581883 4.69850044 3.0625 7.6875 C3.05347656 8.49574219 3.04445313 9.30398438 3.03515625 10.13671875 C3.02355469 10.75160156 3.01195312 11.36648438 3 12 C0.7655402 7.96707255 0.45503257 4.55032566 0 0 Z "
     fill="#5B6F73"
     transform="translate(345,247)"
     id="path1516" />
  <path
     d="M0 0 C3.34373475 0.55728913 6.03312999 1.35173889 9 3 C9 3.66 9 4.32 9 5 C6.03 4.505 6.03 4.505 3 4 C3 3.34 3 2.68 3 2 C2.01 1.67 1.02 1.34 0 1 C0 0.67 0 0.34 0 0 Z "
     fill="#F2FDE0"
     transform="translate(409,493)"
     id="path1540" />
  <path
     d="M0 0 C5.5 -0.36666667 5.5 -0.36666667 7.875 1.375 C9 3 9 3 9 5 C5.9168649 3.80100302 2.93720508 2.52299523 0 1 C0 0.67 0 0.34 0 0 Z "
     fill="#F7F9D7"
     transform="translate(130,532)"
     id="path1544" />
  <path
     d="M0 0 C1.65 0.33 3.3 0.66 5 1 C4.67 1.66 4.34 2.32 4 3 C4 3.66 4 4.32 4 5 C2.35 5 0.7 5 -1 5 C-0.67 3.35 -0.34 1.7 0 0 Z "
     fill="#F96729"
     transform="translate(679,457)"
     id="path1552" />
  <path
     d="M0 0 C0.66 0 1.32 0 2 0 C2.33 0.66 2.66 1.32 3 2 C3.99 2.33 4.98 2.66 6 3 C5.67 4.32 5.34 5.64 5 7 C2.5 5.1875 2.5 5.1875 0 3 C0 2.01 0 1.02 0 0 Z "
     fill="#F2FCF1"
     transform="translate(520,512)"
     id="path1576" />
  <path
     d="M0 0 C1.98 1.65 3.96 3.3 6 5 C5.67 6.32 5.34 7.64 5 9 C4.67 8.01 4.34 7.02 4 6 C1.99983534 4.79117904 1.99983534 4.79117904 0 4 C0 2.68 0 1.36 0 0 Z "
     fill="#EB662A"
     transform="translate(684,460)"
     id="path1584" />
  <path
     d="M0 0 C0.99 0.33 1.98 0.66 3 1 C3 2.98 3 4.96 3 7 C2.01 6.34 1.02 5.68 0 5 C-0.1875 2.375 -0.1875 2.375 0 0 Z "
     fill="#F6FCF5"
     transform="translate(465,557)"
     id="path1604" />
  <path
     d="M0 0 C1.98 0.99 1.98 0.99 4 2 C3.67 3.32 3.34 4.64 3 6 C2.01 5.67 1.02 5.34 0 5 C0 3.35 0 1.7 0 0 Z "
     fill="#F0FCE3"
     transform="translate(142,540)"
     id="path1612" />
  <path
     d="M0 0 C1.98 0 3.96 0 6 0 C6 0.99 6 1.98 6 3 C4.02 3 2.04 3 0 3 C0 2.01 0 1.02 0 0 Z "
     fill="#F6F7F6"
     transform="translate(365,501)"
     id="path1620" />
  <path
     d="M0 0 C0.66 0.33 1.32 0.66 2 1 C1.67 2.32 1.34 3.64 1 5 C0.34 5 -0.32 5 -1 5 C-1 5.66 -1 6.32 -1 7 C-1.99 7 -2.98 7 -4 7 C-3.67 6.01 -3.34 5.02 -3 4 C-2.34 3.67 -1.68 3.34 -1 3 C-0.67 2.01 -0.34 1.02 0 0 Z "
     fill="#F3FCF5"
     transform="translate(84,499)"
     id="path1622" />
  <path
     d="M0 0 C2 2 2 2 2 6 C0.68 6 -0.64 6 -2 6 C-1.49396008 3.83125748 -1.00016187 2.00032373 0 0 Z "
     fill="#636D88"
     transform="translate(298,100)"
     id="path1628" />
  <path
     d="M0 0 C0.33 0.66 0.66 1.32 1 2 C0.34 1.67 -0.32 1.34 -1 1 C-0.67 0.67 -0.34 0.34 0 0 Z "
     fill="#200A0A"
     transform="translate(689,620)"
     id="path1646" />
  <path
     d=""
     fill="#1F0A0E"
     transform="translate(0,0)"
     id="path1648" />
  <path
     d=""
     fill="#16180C"
     transform="translate(0,0)"
     id="path1650" />
  <path
     d="M0 0 C2 1 2 1 2 1 Z "
     fill="#1D1111"
     transform="translate(180,450)"
     id="path1652" />
  <path
     d=""
     fill="#221F2A"
     transform="translate(0,0)"
     id="path1654" />
  <path
     d=""
     fill="#221414"
     transform="translate(0,0)"
     id="path1656" />
  <path
     d=""
     fill="#220E10"
     transform="translate(0,0)"
     id="path1658" />
  <path
     d=""
     fill="#1E070F"
     transform="translate(0,0)"
     id="path1660" />
  <path
     d=""
     fill="#1E070D"
     transform="translate(0,0)"
     id="path1662" />
  <path
     d=""
     fill="#1C0903"
     transform="translate(0,0)"
     id="path1664" />
  <path
     d=""
     fill="#0C1D3B"
     transform="translate(0,0)"
     id="path1666" />
  <path
     d=""
     fill="#20161F"
     transform="translate(0,0)"
     id="path1668" />
  <path
     d=""
     fill="#1F0E06"
     transform="translate(0,0)"
     id="path1670" />
  <path
     d=""
     fill="#200B10"
     transform="translate(0,0)"
     id="path1672" />
  <path
     d=""
     fill="#1E090E"
     transform="translate(0,0)"
     id="path1674" />
  <path
     d=""
     fill="#0E1203"
     transform="translate(0,0)"
     id="path1676" />
  <path
     d=""
     fill="#000205"
     transform="translate(0,0)"
     id="path1678" />
  <path
     d=""
     fill="#211614"
     transform="translate(0,0)"
     id="path1680" />
  <path
     d=""
     fill="#200E0E"
     transform="translate(0,0)"
     id="path1682" />
  <path
     d=""
     fill="#1E1010"
     transform="translate(0,0)"
     id="path1684" />
  <path
     d=""
     fill="#1D1111"
     transform="translate(0,0)"
     id="path1686" />
  <path
     d=""
     fill="#1D1111"
     transform="translate(0,0)"
     id="path1688" />
  <path
     d=""
     fill="#1D1111"
     transform="translate(0,0)"
     id="path1690" />
  <path
     d=""
     fill="#1D1111"
     transform="translate(0,0)"
     id="path1692" />
  <path
     d=""
     fill="#1D1111"
     transform="translate(0,0)"
     id="path1694" />
  <path
     d=""
     fill="#1D1111"
     transform="translate(0,0)"
     id="path1696" />
  <path
     d=""
     fill="#1D1111"
     transform="translate(0,0)"
     id="path1698" />
  <path
     d=""
     fill="#202E3B"
     transform="translate(0,0)"
     id="path1700" />
  <path
     d=""
     fill="#000305"
     transform="translate(0,0)"
     id="path1702" />
  <path
     d=""
     fill="#23363A"
     transform="translate(0,0)"
     id="path1704" />
  <path
     d=""
     fill="#1E272E"
     transform="translate(0,0)"
     id="path1706" />
  <path
     d=""
     fill="#1E2F39"
     transform="translate(0,0)"
     id="path1708" />
  <ellipse
     style="fill:#293b47;fill-opacity:1;stroke-width:1.05248"
     id="path1889"
     cx="367.28369"
     cy="303.5918"
     rx="10.127467"
     ry="10.635612" />
  <path
     style="fill:#fc6120;fill-opacity:1;stroke-width:1.10848"
     id="path4264"
     sodipodi:type="arc"
     sodipodi:cx="673.77576"
     sodipodi:cy="471.24249"
     sodipodi:rx="19.277267"
     sodipodi:ry="18.42897"
     sodipodi:start="4.6408305"
     sodipodi:end="0.26179939"
     sodipodi:arc-type="slice"
     d="m 672.39748,452.86069 a 19.277267,18.42897 0 0 1 16.24238,6.64713 19.277267,18.42897 0 0 1 3.75631,16.50444 l -18.62041,-4.76977 z" />
  <path
     style="fill:#fc6120;fill-opacity:1;stroke-width:1.183"
     id="path4264-8"
     sodipodi:type="arc"
     sodipodi:cx="57.783691"
     sodipodi:cy="471.9791"
     sodipodi:rx="20.116957"
     sodipodi:ry="20.114138"
     sodipodi:start="2.979277"
     sodipodi:end="0.26179939"
     sodipodi:arc-type="slice"
     d="m 37.931158,475.22962 a 20.116957,20.114138 0 0 1 9.431406,-20.45544 20.116957,20.114138 0 0 1 22.499755,1.11995 20.116957,20.114138 0 0 1 7.35286,21.29089 L 57.783691,471.9791 Z" />
  <path
     style="fill:#fcfbe8;fill-opacity:1"
     d="m 426.82733,513.13855 3.46924,-3.18198 -3.57973,-2.85052 z"
     id="path8847" />
  <ellipse
     style="fill:#f66727;fill-opacity:1;stroke-width:1.07904"
     id="path10536"
     cx="282.68869"
     cy="94.109322"
     rx="13.87697"
     ry="12.708634" />
  <ellipse
     style="fill:#f66727;fill-opacity:1;stroke-width:1.07904"
     id="path10536-8"
     cx="446.65903"
     cy="95.396446"
     rx="13.87697"
     ry="12.708634" />
</svg>
